<svg xmlns="http://www.w3.org/2000/svg" width="200" height="165" viewBox="2.375 2.2 285.256 235.6"><path fill="#0F3A97" d="M252.51 120c0 64.618-53.233 117.8-117.92 117.8-64.685 0-117.92-53.185-117.92-117.8 0-64.622 51.99-117.8 117.92-117.8 63.436 0 117.92 53.181 117.92 117.8"/><path fill="#FFF" d="M161.188 182c50.379 20.725 41.638-31.646 14.783-71.747-15.221-22.718-35.071-41.646-47.591-50.78-41.513-30.298-67.14-11.922-37.826 47.83 9.478 19.319 21.651 32.358 31.159 44.648 7.261 9.383 21.404 14.081 16.422 18.531-5.615 5.021-19.209-17.123-19.209-17.123-10.04-12.108-19.61-25.028-29.473-42.76-22.533-40.497-19.284-81.831 21.505-63.826 34.615 15.288 67.678 58.166 80.973 88.616 6.139 14.062 22.879 69.692-30.438 47.2"/><path fill="#F7410A" d="M4.526 154.92c22.163-14.76 43.176-24.29 78.935-36.102 50.249-16.6 88.067-27.758 134.472-51.082 20.771-10.438 56.811-33.847 69.698-54.196-3.858 7.876-15.812 23.206-21.22 29.985-62.96 78.833-197.07 74.363-261 112.209"/><path fill="#FFF" d="M36.678 97.303c20.284.159 18.294-.041 18.531.197.354 0 16.196 27.281 16.196 27.518 0 .115-.118-9.696-.118-21.967 0-1.417-3.899-5.55-3.783-5.55 5.79 0 13.357.118 13.357.118-2.835 3.307-3.402 3.034-3.426 5.079-.08 6.57-.154 18.716 0 32.356.022 2.045 1.537 2.835 4.02 6.378H62.893c-6.029-10.038-17.077-28.869-17.022-28.814.085.086-.238 11.812.116 21.257.119 3.121 1.538 4.133 4.14 6.969 0 0 2.993-.08-14.542.117 5.32-2.835 4.613-6.377 4.611-6.495-.191-13.052-.04-24.211-.04-31.415 0-1.181-.08-1.064-3.743-5.551M100.1 117.46c1.703-5.913 3.158-11.197 3.849-14.644.117-.591-1.3-2.716-3.546-4.842l-.159-.33c10.831.035 22.146.096 22.146.096 2.956 7.202 9.693 27.396 14.777 39.798 1.344 3.275 3.665 3.896 3.665 3.896-9.221-.117-26.333-.037-26.242-.117 4.609-4.136 4.018-4.136 2.008-10.154h-14.421c-2.956 6.848.921 10.062 1.417 10.037-3.282.17-14.421 0-14.421 0 6.029-4.254 5.673-5.552 5.673-5.552 1.656-5.892 3.575-12.347 5.255-18.189l5.917.001-2.542 8.148h11.47l-6.385-16.298-2.542 8.148-5.917-.001M199.17 118.05c1.7-5.911 3.156-11.197 3.847-14.644.116-.59-1.303-2.715-3.548-4.843l-.159-.328c10.834.035 22.151.095 22.151.095 2.951 7.204 9.69 27.396 14.772 39.798 1.343 3.279 3.662 3.896 3.662 3.896-9.215-.117-26.328-.037-26.239-.117 4.61-4.133 4.021-4.133 2.011-10.154h-14.424c-2.956 6.849.919 10.062 1.415 10.039-3.279.168-14.421 0-14.421 0 6.029-4.252 5.676-5.552 5.676-5.552 1.656-5.894 3.574-12.346 5.257-18.19h5.916c-1.274 4.077-2.54 8.151-2.54 8.151h11.464l-6.385-16.3s-1.267 4.073-2.539 8.147l-5.916.002M180.521 108.37c-.235-8.39 0-11.104 0-11.104-3.666 2.954-1.815 2.577-10.992 1.063-26.444-4.363-28.459 20.324-14.068 25.861 12.08 4.65 16.359 5.562 14.539 9.919-.591 1.422-11.584 6.616-22.932-3.896l.231 14.645c1.42-1.461 5.323-4.133 5.323-4.133.115 0 12.3 5.367 23.286-.236 16.907-8.619 8.469-22.572-9.574-28.106-15.015-4.606-.828-15.354 14.065-3.897"/></svg>